<svg width="1000" height="1000" xmlns="http://www.w3.org/2000/svg" version="1.1">
    <!--    <rect x="0" y="0" width="100%" height="100%" fill="#f00"></rect>-->
    <g>
        <path fill="#000"
              d="m457.02209,452.97067c-172.00913,-211.40054 -424.67686,-287.74483 -424.67686,-287.74483l90.22508,399.54139c361.08788,55.14797 347.2071,288.8703 339.5164,341.2046c0,0 86.66109,-99.22883 78.0325,-247.22796c-4.3143,-75.59398 -35.26469,-147.06125 -83.09711,-205.7732l0,0z"
              id="svg_3"/>
        <path stroke="null" fill="#79b30f"
              d="m139.07717,637.9227l26.44851,117.23632c166.56937,-4.3143 296.37343,150.81281 296.37343,150.81281c-14.25594,-233.34718 -322.82194,-268.04913 -322.82194,-268.04913z"
              id="svg_4"/>
        <path stroke="null" fill="#79b30f"
              d="m969.29793,155.47178l-287.36968,26.26094l-179.32468,333.70147c88.72445,211.40054 -40.51687,390.53764 -40.51687,390.53764l507.21123,-750.50006z"
              id="svg_5"/>
    </g>

</svg>
